<?xml version="1.0" standalone="no"?>
<!DOCTYPE svg PUBLIC "-//W3C//DTD SVG 20010904//EN"
 "http://www.w3.org/TR/2001/REC-SVG-20010904/DTD/svg10.dtd">
<svg version="1.0" xmlns="http://www.w3.org/2000/svg"
 width="499.000000pt" height="499.000000pt" viewBox="0 0 499.000000 499.000000"
 preserveAspectRatio="xMidYMid meet">

<g transform="translate(0.000000,499.000000) scale(0.100000,-0.100000)"
fill="#000000" stroke="none">
<path d="M2405 4124 c-532 -40 -986 -304 -1272 -738 -175 -265 -263 -560 -264
-886 -1 -228 40 -435 124 -635 207 -488 628 -839 1152 -961 135 -31 416 -44
560 -25 267 35 518 136 749 300 108 76 286 256 368 371 139 195 245 455 283
690 21 136 21 362 0 503 -96 639 -583 1174 -1211 1331 -150 38 -362 59 -489
50z m-33 -684 c66 -24 126 -73 144 -116 12 -27 14 -177 14 -831 0 -899 5 -837
-78 -900 -201 -152 -506 -15 -529 237 -5 55 -4 59 32 98 49 55 143 100 223
108 58 6 62 9 62 32 0 25 -1 25 -64 19 -36 -3 -81 -13 -102 -22 -20 -8 -39
-14 -41 -12 -1 2 2 30 8 62 6 32 8 79 4 105 -6 41 -9 46 -28 43 -20 -4 -22
-10 -23 -83 0 -67 -5 -88 -32 -142 -17 -35 -42 -74 -56 -87 l-25 -24 -50 32
c-94 61 -141 146 -148 266 -6 95 17 168 72 232 l34 40 -25 24 c-65 61 -102
216 -75 314 19 70 72 145 133 189 l58 40 25 -24 c14 -13 40 -54 58 -89 28 -57
32 -75 31 -142 0 -72 1 -78 22 -82 20 -3 23 1 29 43 4 26 2 73 -4 105 -6 32
-9 60 -8 62 2 2 21 -4 41 -12 21 -9 66 -19 102 -22 63 -6 64 -6 64 19 0 23 -4
26 -62 32 -80 8 -153 42 -213 99 l-48 46 6 61 c19 214 246 356 449 280z m487
-36 c43 -36 44 -93 1 -136 -30 -29 -30 -31 -30 -135 l0 -104 -62 -70 -63 -69
-62 0 -63 0 0 35 0 35 48 0 c46 0 51 3 90 49 l42 50 0 91 c0 84 -2 95 -25 122
-77 92 33 209 124 132z m405 -438 c88 -37 105 -154 30 -210 -59 -43 -141 -27
-178 35 -17 28 -20 29 -96 29 l-78 0 -78 -72 -77 -73 -101 0 -101 0 -3 33 -3
32 87 0 87 0 82 75 83 75 90 0 c85 0 91 1 106 25 20 30 73 65 99 65 10 0 32
-6 51 -14z m-175 -402 c26 -21 31 -33 31 -69 0 -36 -5 -48 -32 -70 -26 -22
-39 -26 -67 -21 -21 3 -45 16 -58 31 l-22 25 -181 0 -180 0 0 35 0 35 183 0
c173 0 183 1 195 20 27 45 88 51 131 14z m-227 -319 l82 -75 78 0 c74 0 77 1
94 29 36 61 112 79 170 39 84 -57 69 -179 -26 -218 -44 -18 -102 1 -137 45
l-28 35 -90 0 -90 1 -80 74 -80 75 -87 0 -88 0 0 28 c0 16 3 32 7 35 3 4 48 7
99 7 l93 0 83 -75z m-94 -214 l62 -70 0 -101 c0 -99 1 -103 30 -137 42 -48 42
-101 -1 -137 -17 -15 -43 -26 -59 -26 -16 0 -42 11 -59 26 -41 34 -43 88 -6
132 23 27 25 38 25 122 l0 92 -41 49 c-39 46 -43 49 -90 49 l-49 0 0 35 0 35
63 0 63 0 62 -69z"/>
<path d="M3187 2892 c-43 -47 1 -110 58 -84 33 15 35 64 3 86 -29 21 -41 20
-61 -2z"/>
<path d="M3188 2179 c-24 -13 -23 -61 0 -82 24 -22 45 -21 65 1 45 49 -8 115
-65 81z"/>
</g>
</svg>
